<svg width="20" height="21" viewBox="0 0 20 21" fill="none" xmlns="http://www.w3.org/2000/svg">
<path fill-rule="evenodd" clip-rule="evenodd" d="M10 2.25C5.44365 2.25 1.75 5.94365 1.75 10.5C1.75 15.0563 5.44365 18.75 10 18.75C14.5563 18.75 18.25 15.0563 18.25 10.5C18.25 5.94365 14.5563 2.25 10 2.25ZM0.25 10.5C0.25 5.11522 4.61522 0.75 10 0.75C15.3848 0.75 19.75 5.11522 19.75 10.5C19.75 15.8848 15.3848 20.25 10 20.25C4.61522 20.25 0.25 15.8848 0.25 10.5ZM10 3.75C10.4142 3.75 10.75 4.08579 10.75 4.5V9.75H14.5C14.9142 9.75 15.25 10.0858 15.25 10.5C15.25 10.9142 14.9142 11.25 14.5 11.25H10C9.58579 11.25 9.25 10.9142 9.25 10.5V4.5C9.25 4.08579 9.58579 3.75 10 3.75Z" fill="#4C4C4D"/>
</svg>
